:SAMPLES-PER-SECOND 30
:FULLY-SPECIFIED
:DEGREES
392
root  -73.2662 34.2278 25.2132 -174.889 62.4951 -178.794
RightUpLeg  -3.61966 -14.8125 -6.20631
RightLeg  17.4877 -8.89916 -2.17555
RightFoot  -7.9463 0.0636467 1.5157
RightToes  -31.612 -0.155177 -0.263012
Spine  -0.0314366 1.31571 -0.208788
Spine1  -0.121473 2.77586 0.191577
HEad  -66.1042 -12.2168 -2.97671
LeftShoulder1  -1.94126e-019 -3.10601e-018 -2.51263e-017
LeftArm  -21.4509 31.6276 -75.8123
LeftForeArm  26.0625 -42.3923 -8.46182
LeftHand  -0.532075 -1.4527 9.19138
RightShoulder  -4.96962e-017 0 -2.36833e-017
RightArm  -25.8865 -18.6105 71.8387
RightForeArm  35.9215 29.4252 4.37481
RightHand  0.0283144 -6.04274 -9.1743
LeftUpLeg  -23.4771 8.84888 5.48339
LeftLeg  25.5297 11.4402 4.54315
LeftFoot  7.89331 -0.118043 1.87241
LeftToes  -29.1343 2.32378e-006 -5.43956e-008
393
root  -73.1324 34.0198 24.4921 -174.605 61.4397 -178.59
RightUpLeg  -3.53393 -15.0293 -7.15203
RightLeg  19.1143 -9.16983 -2.51807
RightFoot  -8.43399 0.0775108 1.65223
RightToes  -31.336 -0.153228 -0.261143
Spine  0.0196197 1.31754 -0.276629
Spine1  -0.0265429 2.80095 0.0447636
HEad  -66.9458 -13.6207 -1.63543
LeftShoulder1  -1.94126e-019 -3.10601e-018 -2.51263e-017
LeftArm  -18.427 30.0252 -75.8927
LeftForeArm  28.3077 -44.8374 -9.15014
LeftHand  -0.516605 -2.05693 8.24806
RightShoulder  -4.96962e-017 0 -2.36833e-017
RightArm  -24.8733 -16.8611 72.3658
RightForeArm  36.5228 31.5323 4.82571
RightHand  -0.00477148 -5.58701 -9.60124
LeftUpLeg  -24.2358 8.15205 4.74104
LeftLeg  27.6706 10.8119 4.76763
LeftFoot  7.3408 -0.0982802 1.69354
LeftToes  -29.3049 2.32378e-006 -5.43956e-008
394
root  -72.9377 33.8465 23.7934 -174.352 60.247 -178.2
RightUpLeg  -2.76064 -14.3953 -7.71837
RightLeg  19.8633 -10.0204 -2.88943
RightFoot  -8.65128 0.0931538 1.83782
RightToes  -29.0374 -0.137349 -0.24522
Spine  0.114335 1.40735 -0.342557
Spine1  0.163745 2.98384 -0.0778287
HEad  -67.5881 -15.5036 0.0580666
LeftShoulder1  -1.94126e-019 -3.10601e-018 -2.51263e-017
LeftArm  -15.6678 28.3224 -75.9422
LeftForeArm  30.564 -46.4468 -9.58283
LeftHand  -0.515787 -2.85575 7.49097
RightShoulder  -4.96962e-017 0 -2.36833e-017
RightArm  -23.8926 -15.4954 72.9965
RightForeArm  37.2484 33.0401 5.14862
RightHand  -0.0531852 -4.9929 -10.2236
LeftUpLeg  -25.7045 7.64385 4.13041
LeftLeg  31.8845 9.86279 5.24336
LeftFoot  4.61356 -0.036834 1.07592
LeftToes  -26.5864 2.32378e-006 -5.43956e-008
395
root  -72.6945 33.7577 23.071 -174.439 59.6946 -178.397
RightUpLeg  -1.56925 -13.0103 -8.38717
RightLeg  19.362 -11.221 -3.1248
RightFoot  -9.25327 0.125058 2.15826
RightToes  -25.872 -0.116552 -0.222276
Spine  0.0542832 1.76032 -0.731177
Spine1  0.0323697 3.68052 -0.833867
HEad  -68.0027 -18.0611 2.18886
LeftShoulder1  -1.94126e-019 -3.10601e-018 -2.51263e-017
LeftArm  -13.5899 27.5354 -75.4182
LeftForeArm  31.4946 -48.0183 -10.1264
LeftHand  -0.547372 -3.59084 7.33169
RightShoulder  -4.96962e-017 0 -2.36833e-017
RightArm  -22.213 -14.5922 74.1776
RightForeArm  38.6742 33.2173 5.11992
RightHand  -0.1429 -3.99618 -10.7337
LeftUpLeg  -25.9465 9.19062 3.11513
LeftLeg  33.5842 8.11508 4.6359
LeftFoot  2.55558 -0.00951936 0.588324
LeftToes  -25.1358 2.32378e-006 -5.43956e-008
396
root  -72.4037 33.7531 22.3718 -174.419 59.9483 -178.641
RightUpLeg  -0.195644 -10.6897 -8.90685
RightLeg  17.619 -10.9576 -2.6983
RightFoot  -10.1754 0.148432 2.27712
RightToes  -24.803 -0.10982 -0.214273
Spine  -0.0718352 2.09967 -1.23532
Spine1  -0.242619 4.34357 -1.81932
HEad  -68.1578 -19.8419 3.73296
LeftShoulder1  -1.94126e-019 -3.10601e-018 -2.51263e-017
LeftArm  -13.4 28.1781 -74.6486
LeftForeArm  31.8048 -49.5457 -10.7323
LeftHand  -0.488149 -3.74241 6.46775
RightShoulder  -4.96962e-017 0 -2.36833e-017
RightArm  -18.6105 -13.3107 75.4813
RightForeArm  41.5449 32.7922 4.87183
RightHand  -0.243224 -2.57034 -9.64714
LeftUpLeg  -25.1273 11.1147 2.19008
LeftLeg  33.5376 6.85725 3.91537
LeftFoot  0.646766 -0.000541035 0.257439
LeftToes  -24.6822 2.32378e-006 -5.43956e-008
